<svg xmlns="http://www.w3.org/2000/svg" width="1400" height="560" viewBox="0 0 1400 560">
  <rect width="1400" height="560" fill="#f8fafc"/>
  <text x="50" y="60" font-family="Segoe UI, Arial, sans-serif" font-size="36" fill="#1f4e79">ETL Flow Placeholder</text>
  <text x="50" y="95" font-family="Segoe UI, Arial, sans-serif" font-size="18" fill="#5b738b">Replace this file: docs/images/pipeline-etl-flow.svg</text>

  <rect x="70" y="200" width="180" height="100" rx="10" fill="#ffffff" stroke="#9cb3c7"/>
  <rect x="300" y="200" width="180" height="100" rx="10" fill="#ffffff" stroke="#9cb3c7"/>
  <rect x="530" y="200" width="180" height="100" rx="10" fill="#ffffff" stroke="#9cb3c7"/>
  <rect x="760" y="200" width="180" height="100" rx="10" fill="#ffffff" stroke="#9cb3c7"/>
  <rect x="990" y="200" width="180" height="100" rx="10" fill="#ffffff" stroke="#9cb3c7"/>
  <rect x="1220" y="200" width="130" height="100" rx="10" fill="#ffffff" stroke="#9cb3c7"/>

  <text x="108" y="258" font-family="Segoe UI, Arial, sans-serif" font-size="20" fill="#35526d">Extract</text>
  <text x="336" y="258" font-family="Segoe UI, Arial, sans-serif" font-size="20" fill="#35526d">Validate</text>
  <text x="565" y="258" font-family="Segoe UI, Arial, sans-serif" font-size="20" fill="#35526d">Transform</text>
  <text x="815" y="258" font-family="Segoe UI, Arial, sans-serif" font-size="20" fill="#35526d">Load</text>
  <text x="1027" y="258" font-family="Segoe UI, Arial, sans-serif" font-size="20" fill="#35526d">Anomaly</text>
  <text x="1237" y="258" font-family="Segoe UI, Arial, sans-serif" font-size="20" fill="#35526d">Reports</text>

  <line x1="250" y1="250" x2="300" y2="250" stroke="#35526d" stroke-width="3"/>
  <line x1="480" y1="250" x2="530" y2="250" stroke="#35526d" stroke-width="3"/>
  <line x1="710" y1="250" x2="760" y2="250" stroke="#35526d" stroke-width="3"/>
  <line x1="940" y1="250" x2="990" y2="250" stroke="#35526d" stroke-width="3"/>
  <line x1="1170" y1="250" x2="1220" y2="250" stroke="#35526d" stroke-width="3"/>
</svg>
